<svg xmlns="http://www.w3.org/2000/svg" version="1.1" xmlns:xlink="http://www.w3.org/1999/xlink" width="283.5" height="283.5"><svg version="1.1" id="SvgjsSvg1001" xmlns="http://www.w3.org/2000/svg" xmlns:xlink="http://www.w3.org/1999/xlink" x="0px" y="0px" viewBox="0 0 283.5 283.5" style="enable-background:new 0 0 283.5 283.5;" xml:space="preserve">
<style type="text/css">
	.st0{fill:#34B8E4;}
	.st1{fill:#818386;}
</style>
<g>
	<polyline class="st0" points="181.3,97.5 220.5,56.5 269.6,56.5 210.4,118.5 269.8,183 220.3,183 181.3,139 	"></polyline>
	<path class="st1" d="M163,183V56.5H60.4c-10.6,0-21.3,0.7-30.1,6.5C20.9,69,15.5,79.3,15.5,89.7c0,13.3,9.3,24.5,23.6,27.5v0.4
		c-16,2.6-27,13.7-27,28.8c0,10.9,4.3,23.1,14.2,29.5c10.8,7,25.8,7.2,38.4,7.2h40.8v-28.2H70.7c-4.3,0-8.9,0.2-12.4-2.4
		c-3-2-5.1-5.4-5.1-8.9c0-4.2,2.6-8.1,6.7-10c3.7-1.7,8.5-1.7,12.4-1.7h33.1V105H71.9c-4.1,0-8.9,0.2-12-2.4
		c-2.6-2.2-4.1-5.4-4.1-8.3c0-9.4,8.5-10.7,16.7-10.7h51.2v0.1h0V183H163L163,183z"></path>
	<path d="M24.8,222.3V214h5.3c3.2,0,5.3,0.6,5.3,4.2c0,3.6-2.2,4.2-5.3,4.2H24.8L24.8,222.3z M24.8,208.7v-7.4h5.3
		c2.8,0,4.4,1.2,4.4,3.7c0,2.5-1.6,3.7-4.4,3.7H24.8L24.8,208.7z M30,227.5c4.8,0.3,12.6-1.9,12.6-8.1c0-4.6-3-7.3-6.9-8.2v-0.1
		c3.1-1,5.5-3.4,5.5-6.9c0-6.1-5.7-8.5-11.3-8.1H18.1v31.4H30L30,227.5z M46.7,227.5h21.5v-5.2H53.4v-8.4h13.4v-5.2H53.4v-7.3h14.3
		v-5.2h-21V227.5L46.7,227.5z M80.3,196.1h-6.7v31.4h6.7v-16h0.1l10.9,16h8.4l-12.5-17.3l11.5-14h-7.9l-10.4,13.6h-0.1V196.1
		L80.3,196.1z M106.6,227.5l2.3-6.6h12.4l2.3,6.6h6.8l-10.9-31.4h-8l-11.3,31.4H106.6L106.6,227.5z M110.7,215.7l4.6-13.4h0.1
		l4.3,13.4H110.7L110.7,215.7z M163.5,216v6.6c-1.8,0.3-3.6,0.7-6.3,0.7c-6,0-8.8-4.4-8.8-11.5c0-7.1,2.9-11.5,8.8-11.5
		c3.7,0,6.3,1.3,6.3,5.3h7.2c0-7.5-5.6-10.2-14.7-10.2c-6.2,0-14.7,3.9-14.7,16.3s8.5,16.3,14.7,16.3c4.1,0,5.7-0.2,7.2-0.3
		c2.4-0.2,4.7-0.7,7-1.4v-15.7h-12.9v5.2H163.5L163.5,216z M182.8,205.7h-6.5v21.8h6.5v-13.1c0.1-3.2,1.9-5,3.9-5
		c3.2,0,3.9,2.7,3.9,5v13.1h6.5v-13.1c0.1-3.2,1.9-5,3.9-5c3.2,0,3.9,2.7,3.9,5v13.1h6.5v-13.1c0-1.7,0-3.6-0.7-5.2
		c-0.9-2.4-4.5-4.1-7-4.1c-3.3,0-5.3,1.3-7.4,4.1c-0.9-2.4-4.5-4.1-7-4.1c-3.3,0-5.3,1.3-6.7,3.2h-0.1V205.7L182.8,205.7z
		 M223.1,216.6c0-3,1.2-7.2,4.7-7.2c4.2,0,4.7,3.9,4.7,7.2c0,3.3-0.5,7.2-4.7,7.2C224.3,223.8,223.1,219.6,223.1,216.6L223.1,216.6z
		 M216.6,223.2c0,1.4-0.1,2.9-0.2,4.3h6.5c0.1-1,0.2-2,0.2-3.1h0.1c1.4,2.6,3.9,3.7,6.7,3.7c6.4,0,9.4-6,9.4-11.6
		c0-5.9-3.4-11.6-10.2-11.6c-2.3,0-4.6,1.3-5.8,3.2h-0.1v-12.1h-6.5V223.2L216.6,223.2z M250.7,227.5v-13.8h11.9v13.8h6.7v-31.4
		h-6.8v12.4h-11.9v-12.4H244v31.4H250.7L250.7,227.5z"></path>
</g>
</svg><style>@media (prefers-color-scheme: light) { :root { filter: none; } }
@media (prefers-color-scheme: dark) { :root { filter: invert(100%); } }
</style></svg>