<svg width="20" height="20" viewBox="0 0 20 20" fill="none" xmlns="http://www.w3.org/2000/svg">
  <path d="M17 5H15V2C15 0.9 14.1 0 13 0H5C3.9 0 3 0.9 3 2V5H1C0.4 5 0 5.4 0 6V15C0 15.6 0.4 16 1 16H3V18C3 19.1 3.9 20 5 20H13C14.1 20 15 19.1 15 18V16H17C17.6 16 18 15.6 18 15V6C18 5.4 17.6 5 17 5ZM5 2H13V5H5V2ZM13 18H5V12H13V18ZM16 14H15V11C15 10.4 14.6 10 14 10H4C3.4 10 3 10.4 3 11V14H2V7H16V14Z" fill="currentColor"/>
  <circle cx="5" cy="8" r="0.5" fill="currentColor"/>
  <circle cx="7" cy="8" r="0.5" fill="currentColor"/>
  <circle cx="9" cy="8" r="0.5" fill="currentColor"/>
</svg>
