<?xml version="1.0" encoding="UTF-8"?>
<svg id="Ebene_2" data-name="Ebene 2" xmlns="http://www.w3.org/2000/svg" viewBox="0 0 18.5229 18.17217">
  <defs>
    <style>
      .cls-1 {
        fill: none;
        stroke: currentColor;
        stroke-linejoin: round;
        stroke-width: 1px;
      }
    </style>
  </defs>
  <g id="Ebene_1-2" data-name="Ebene 1">
    <g id="Gruppe_291" data-name="Gruppe 291">
      <path id="Pfad_4141" data-name="Pfad 4141" class="cls-1" d="M14.27055,7.05806l2.60852-2.60852c.79428-.82991.7654-2.14657-.06451-2.94086-.80428-.76976-2.07206-.76976-2.87635,0l-4.74751,4.74751L4.04225,1.10775c-.81034-.81034-2.12416-.81034-2.93449,0s-.81034,2.12416,0,2.93449l5.09824,5.09824L1.64516,13.72112c-.7871.83748-.74625,2.15447.09123,2.94156.80099.7528,2.04934.7528,2.85033,0l4.7461-4.7461,5.14845,5.14845c.81068.81,2.12449.80945,2.93449-.00123.80952-.8102.80952-2.12307,0-2.93326l-5.58261-5.58261"/>
    </g>
  </g>
</svg>